<svg width="351" height="72" viewBox="0 0 351 72" version="1.1" xmlns="http://www.w3.org/2000/svg" xmlns:xlink="http://www.w3.org/1999/xlink">
<title>thailandLogo</title>
<desc>Created using Figma</desc>
<g id="Canvas" transform="translate(814 -2351)">
<g id="thailandLogo">
<g id="Thailand">
<use xlink:href="#path0_fill" transform="matrix(0.99842 -0.0561944 0.0561944 0.99842 -642 2348.78)" fill="#902824"/>
</g>
<g id="Gospel to">
<use xlink:href="#path1_fill" transform="matrix(0.99842 -0.0561944 0.0561944 0.99842 -823 2354.17)" fill="#E09821"/>
</g>
</g>
</g>
<defs>
<path id="path0_fill" d="M 14.95 23.7C 13.6167 23.7 12.5833 23.3333 11.85 22.6C 11.15 21.8333 10.8 20.9167 10.8 19.85C 10.8 19.5833 10.8333 19.2667 10.9 18.9C 11 18.5333 11.1167 18.2167 11.25 17.95C 11.6833 18.15 12.3167 18.3 13.15 18.4C 14.0167 18.4667 15.0167 18.5 16.15 18.5C 17.85 18.5 19.7667 18.4333 21.9 18.3C 24.0667 18.1333 26.1333 17.9667 28.1 17.8C 30.0667 17.6333 31.8 17.4833 33.3 17.35C 34.8 17.1833 35.7667 17.1 36.2 17.1C 37.4333 17.1 38.3167 17.5667 38.85 18.5C 39.4167 19.4 39.8333 20.6167 40.1 22.15C 39.2333 22.0833 38.3667 22.0333 37.5 22C 36.6667 21.9333 35.95 21.9 35.35 21.9C 34.2833 21.9 33.2 21.9333 32.1 22C 31.0333 22.0667 29.95 22.1667 28.85 22.3C 28.3833 23.2667 27.8667 24.4167 27.3 25.75C 26.7333 27.05 26.1667 28.4167 25.6 29.85C 25.0667 31.2833 24.55 32.7167 24.05 34.15C 23.55 35.55 23.1167 36.8167 22.75 37.95C 22.0167 40.15 21.3667 42.1833 20.8 44.05C 20.2667 45.9167 19.7833 47.6667 19.35 49.3C 18.95 50.9 18.6 52.4333 18.3 53.9C 18 55.3667 17.7333 56.8 17.5 58.2C 15.2667 57.8667 13.4 56.4667 11.9 54C 12.1667 52.9667 12.4833 51.85 12.85 50.65C 13.25 49.4167 13.7 48.0333 14.2 46.5C 14.7333 44.9333 15.35 43.1667 16.05 41.2C 16.75 39.2333 17.55 37 18.45 34.5C 18.7833 33.5667 19.1333 32.6 19.5 31.6C 19.8667 30.5667 20.2167 29.55 20.55 28.55C 20.9167 27.55 21.2333 26.5833 21.5 25.65C 21.8 24.7167 22.05 23.8667 22.25 23.1C 20.85 23.2667 19.5167 23.4167 18.25 23.55C 17.0167 23.65 15.9167 23.7 14.95 23.7ZM 33.4621 53.15C 33.4621 51.9833 33.5788 50.6167 33.8121 49.05C 34.0454 47.45 34.3788 45.75 34.8121 43.95C 35.2788 42.15 35.8121 40.2667 36.4121 38.3C 37.0454 36.3333 37.7454 34.3667 38.5121 32.4C 39.1788 30.6333 39.9454 28.85 40.8121 27.05C 41.7121 25.25 42.6788 23.4833 43.7121 21.75C 44.7454 20.0167 45.8121 18.3667 46.9121 16.8C 48.0454 15.2333 49.1788 13.8 50.3121 12.5C 50.8454 12.5 51.4121 12.5667 52.0121 12.7C 52.6454 12.8333 53.2454 13.0167 53.8121 13.25C 54.4121 13.45 54.9454 13.7 55.4121 14C 55.9121 14.3 56.3121 14.6 56.6121 14.9C 54.1121 17.4667 51.8621 20.0667 49.8621 22.7C 47.8621 25.3 46.2788 27.75 45.1121 30.05C 44.4788 31.3167 43.8954 32.5 43.3621 33.6C 42.8621 34.7 42.3954 35.8 41.9621 36.9C 41.5288 37.9667 41.1288 39.05 40.7621 40.15C 40.4288 41.2167 40.1121 42.35 39.8121 43.55C 46.2121 35.3833 50.9621 31.3 54.0621 31.3C 54.9288 31.3 55.8621 31.5833 56.8621 32.15C 57.8621 32.7167 58.7454 33.4833 59.5121 34.45C 58.4788 35.5833 57.4121 36.95 56.3121 38.55C 55.2121 40.15 54.1954 41.7667 53.2621 43.4C 52.3621 45 51.6121 46.5 51.0121 47.9C 50.4454 49.2667 50.1621 50.2833 50.1621 50.95C 50.1621 51.2833 50.2121 51.5167 50.3121 51.65C 50.4121 51.75 50.6288 51.8 50.9621 51.8C 51.4621 51.8 51.8621 51.7333 52.1621 51.6C 52.4621 51.4667 52.6454 51.4 52.7121 51.4C 52.8788 51.6667 52.9788 51.85 53.0121 51.95C 53.0454 52.05 53.0621 52.1333 53.0621 52.2C 53.0621 52.3333 52.8621 52.5333 52.4621 52.8C 52.0621 53.0333 51.5788 53.2833 51.0121 53.55C 50.4788 53.7833 49.9454 54 49.4121 54.2C 48.8788 54.4 48.4788 54.5 48.2121 54.5C 47.8788 54.5 47.5454 54.4 47.2121 54.2C 46.8788 54.0333 46.5788 53.8 46.3121 53.5C 46.0788 53.2 45.8788 52.8667 45.7121 52.5C 45.5788 52.1333 45.5121 51.75 45.5121 51.35C 45.5121 50.85 45.6454 50.1167 45.9121 49.15C 46.2121 48.15 46.6121 47 47.1121 45.7C 47.6121 44.3667 48.2121 42.9167 48.9121 41.35C 49.6121 39.7833 50.3621 38.1833 51.1621 36.55C 51.1621 36.4167 51.0954 36.35 50.9621 36.35C 50.8621 36.35 50.5954 36.4833 50.1621 36.75C 49.7621 37.0167 49.3788 37.2833 49.0121 37.55C 47.8121 38.45 46.5954 39.5667 45.3621 40.9C 44.1621 42.2 42.9788 43.6333 41.8121 45.2C 40.6788 46.7667 39.5954 48.4333 38.5621 50.2C 37.5621 51.9333 36.6954 53.6833 35.9621 55.45C 35.8621 55.6833 35.7121 55.9 35.5121 56.1C 35.3121 56.3 35.1454 56.4 35.0121 56.4C 34.9121 56.4 34.7621 56.2833 34.5621 56.05C 34.3954 55.8167 34.2288 55.5167 34.0621 55.15C 33.9288 54.8167 33.7954 54.4667 33.6621 54.1C 33.5288 53.7333 33.4621 53.4167 33.4621 53.15ZM 76.5922 33.8C 76.9255 33.8 77.3089 33.8667 77.7422 34C 78.2089 34.1 78.6255 34.25 78.9922 34.45C 79.3589 34.6167 79.6589 34.8 79.8922 35C 80.1589 35.2 80.2922 35.3833 80.2922 35.55C 79.6255 36.95 79.0089 38.3667 78.4422 39.8C 77.8755 41.2 77.3922 42.55 76.9922 43.85C 76.5922 45.15 76.2755 46.3667 76.0422 47.5C 75.8422 48.6333 75.7422 49.6167 75.7422 50.45C 75.7422 51.3833 75.8422 52.1667 76.0422 52.8C 76.2422 53.4 76.5755 53.8333 77.0422 54.1C 76.6422 54.3667 76.1255 54.5833 75.4922 54.75C 74.8589 54.9167 74.2922 55 73.7922 55C 71.9922 55 71.0922 53.7667 71.0922 51.3C 71.0922 49.4 71.7255 46.8 72.9922 43.5C 72.3255 45.0333 71.5589 46.4833 70.6922 47.85C 69.8255 49.1833 68.9422 50.3667 68.0422 51.4C 67.1422 52.4333 66.2255 53.2833 65.2922 53.95C 64.3922 54.5833 63.5589 54.9667 62.7922 55.1C 61.5589 55.0333 60.5589 54.45 59.7922 53.35C 59.0255 52.2167 58.6422 50.7833 58.6422 49.05C 58.6422 47.1833 59.0422 45.2167 59.8422 43.15C 60.6422 41.0833 61.6589 39.1667 62.8922 37.4C 64.1589 35.6333 65.5255 34.1667 66.9922 33C 68.4589 31.8 69.8755 31.1667 71.2422 31.1C 71.5755 31.2 71.9422 31.4 72.3422 31.7C 72.7755 32 73.1755 32.35 73.5422 32.75C 73.9422 33.15 74.2755 33.5667 74.5422 34C 74.8089 34.4 74.9589 34.75 74.9922 35.05C 73.6589 35.25 72.2755 35.9 70.8422 37C 69.4422 38.1 68.1589 39.4333 66.9922 41C 65.8589 42.5333 64.9255 44.1833 64.1922 45.95C 63.4589 47.7167 63.0922 49.3667 63.0922 50.9C 63.0922 51.5333 63.3255 51.9333 63.7922 52.1C 64.7589 51.9 65.8755 51.0833 67.1422 49.65C 68.4089 48.1833 69.9422 45.9333 71.7422 42.9C 72.0755 42.3 72.4422 41.6333 72.8422 40.9C 73.2755 40.1667 73.7089 39.4 74.1422 38.6C 74.5755 37.8 74.9922 37 75.3922 36.2C 75.8255 35.3667 76.2255 34.5667 76.5922 33.8ZM 82.6832 50.65C 82.6832 50.35 82.6999 49.9833 82.7332 49.55C 82.7999 49.0833 82.8999 48.4833 83.0332 47.75C 83.1665 46.9833 83.3332 46.0667 83.5332 45C 83.7665 43.9333 84.0499 42.65 84.3832 41.15C 84.4499 40.8167 84.5999 40.2833 84.8332 39.55C 85.0665 38.8167 85.3665 38.05 85.7332 37.25C 86.1332 36.4167 86.5999 35.6167 87.1332 34.85C 87.6999 34.0833 88.3665 33.5167 89.1332 33.15C 89.6999 33.2833 90.4499 33.6333 91.3832 34.2C 92.3165 34.7333 93.1165 35.4833 93.7832 36.45C 93.0165 37.3167 92.3665 38.1833 91.8332 39.05C 91.3332 39.9167 90.8665 40.8167 90.4332 41.75C 90.0332 42.6833 89.6499 43.65 89.2832 44.65C 88.9499 45.65 88.5665 46.7 88.1332 47.8C 87.7665 48.7333 87.4332 49.7 87.1332 50.7C 86.8332 51.6667 86.6665 52.5167 86.6332 53.25C 86.6332 53.85 86.6165 54.2667 86.5832 54.5C 86.5832 54.7667 86.4999 54.9 86.3332 54.9C 86.1999 54.9 85.9332 54.8167 85.5332 54.65C 85.1332 54.4833 84.7165 54.2333 84.2832 53.9C 83.8832 53.5333 83.5165 53.0833 83.1832 52.55C 82.8499 52.0167 82.6832 51.3833 82.6832 50.65ZM 92.2332 28.95C 92.2332 28.75 92.2832 28.45 92.3832 28.05C 92.2165 27.8833 92.0665 27.6333 91.9332 27.3C 91.8332 26.9667 91.7832 26.6667 91.7832 26.4C 91.7832 26.1 91.8165 25.7 91.8832 25.2C 91.9832 24.6667 92.0999 24.1 92.2332 23.5C 92.3665 22.9 92.5332 22.2833 92.7332 21.65C 92.9332 20.9833 93.1332 20.3833 93.3332 19.85C 93.7332 19.85 94.2165 19.9667 94.7832 20.2C 95.3832 20.4 95.9832 20.6833 96.5832 21.05C 97.1832 21.3833 97.7332 21.7667 98.2332 22.2C 98.7332 22.6 99.1165 22.9833 99.3832 23.35C 99.0165 23.7167 98.5332 24.2333 97.9332 24.9C 97.3332 25.5333 96.7499 26.2167 96.1832 26.95C 95.6165 27.65 95.0999 28.3167 94.6332 28.95C 94.1665 29.5833 93.8665 30.0333 93.7332 30.3C 93.3332 30.2333 92.9832 30.0667 92.6832 29.8C 92.3832 29.5 92.2332 29.2167 92.2332 28.95ZM 94.3996 50.8C 94.3996 49.3333 94.7496 47.2833 95.4496 44.65C 96.1496 41.9833 97.1329 38.8833 98.3996 35.35C 100.466 29.7167 102.4 25.0333 104.2 21.3C 106.033 17.5333 107.816 14.6 109.55 12.5C 109.95 12.5667 110.433 12.7333 111 13C 111.6 13.2667 112.183 13.5667 112.75 13.9C 113.316 14.2 113.816 14.5167 114.25 14.85C 114.716 15.1833 115.016 15.45 115.15 15.65C 112.55 18.7167 110.266 22.0167 108.3 25.55C 106.333 29.0833 104.533 33.1333 102.9 37.7C 101.5 41.6333 100.433 45.1833 99.6996 48.35C 98.9663 51.4833 98.5996 54.1 98.5996 56.2C 98.5996 56.7667 98.5996 57.1167 98.5996 57.25C 98.5996 57.3833 98.6163 57.5167 98.6496 57.65C 98.1829 57.5833 97.7829 57.4667 97.4496 57.3C 97.1163 57.1333 96.8996 56.9333 96.7996 56.7C 96.7329 56.5333 96.5496 56.2833 96.2496 55.95C 95.9496 55.65 95.6829 55.4167 95.4496 55.25C 95.1496 55.05 94.8996 54.5333 94.6996 53.7C 94.4996 52.8333 94.3996 51.8667 94.3996 50.8ZM 123.321 33.8C 123.654 33.8 124.037 33.8667 124.471 34C 124.937 34.1 125.354 34.25 125.721 34.45C 126.087 34.6167 126.387 34.8 126.621 35C 126.887 35.2 127.021 35.3833 127.021 35.55C 126.354 36.95 125.737 38.3667 125.171 39.8C 124.604 41.2 124.121 42.55 123.721 43.85C 123.321 45.15 123.004 46.3667 122.771 47.5C 122.571 48.6333 122.471 49.6167 122.471 50.45C 122.471 51.3833 122.571 52.1667 122.771 52.8C 122.971 53.4 123.304 53.8333 123.771 54.1C 123.371 54.3667 122.854 54.5833 122.221 54.75C 121.587 54.9167 121.021 55 120.521 55C 118.721 55 117.821 53.7667 117.821 51.3C 117.821 49.4 118.454 46.8 119.721 43.5C 119.054 45.0333 118.287 46.4833 117.421 47.85C 116.554 49.1833 115.671 50.3667 114.771 51.4C 113.871 52.4333 112.954 53.2833 112.021 53.95C 111.121 54.5833 110.287 54.9667 109.521 55.1C 108.287 55.0333 107.287 54.45 106.521 53.35C 105.754 52.2167 105.371 50.7833 105.371 49.05C 105.371 47.1833 105.771 45.2167 106.571 43.15C 107.371 41.0833 108.387 39.1667 109.621 37.4C 110.887 35.6333 112.254 34.1667 113.721 33C 115.187 31.8 116.604 31.1667 117.971 31.1C 118.304 31.2 118.671 31.4 119.071 31.7C 119.504 32 119.904 32.35 120.271 32.75C 120.671 33.15 121.004 33.5667 121.271 34C 121.537 34.4 121.687 34.75 121.721 35.05C 120.387 35.25 119.004 35.9 117.571 37C 116.171 38.1 114.887 39.4333 113.721 41C 112.587 42.5333 111.654 44.1833 110.921 45.95C 110.187 47.7167 109.821 49.3667 109.821 50.9C 109.821 51.5333 110.054 51.9333 110.521 52.1C 111.487 51.9 112.604 51.0833 113.871 49.65C 115.137 48.1833 116.671 45.9333 118.471 42.9C 118.804 42.3 119.171 41.6333 119.571 40.9C 120.004 40.1667 120.437 39.4 120.871 38.6C 121.304 37.8 121.721 37 122.121 36.2C 122.554 35.3667 122.954 34.5667 123.321 33.8ZM 137.657 29.75C 138.524 30.0167 139.34 30.6167 140.107 31.55C 140.874 32.45 141.44 33.45 141.807 34.55C 141.44 35.45 140.874 36.5333 140.107 37.8C 139.34 39.0667 138.574 40.3667 137.807 41.7C 137.04 43 136.34 44.25 135.707 45.45C 135.107 46.6167 134.757 47.5833 134.657 48.35C 135.19 47.7833 135.774 47.1333 136.407 46.4C 137.074 45.6333 137.707 44.8833 138.307 44.15C 138.94 43.3833 139.524 42.7 140.057 42.1C 140.59 41.4667 141.007 41 141.307 40.7C 141.94 40.0333 142.69 39.2667 143.557 38.4C 144.424 37.5 145.324 36.6667 146.257 35.9C 147.224 35.1 148.19 34.4333 149.157 33.9C 150.124 33.3333 151.007 33.05 151.807 33.05C 152.674 33.05 153.39 33.35 153.957 33.95C 154.557 34.5167 155.024 35.1167 155.357 35.75C 155.357 35.8167 155.224 35.9167 154.957 36.05C 154.724 36.15 154.374 36.4667 153.907 37C 153.44 37.6 152.907 38.4333 152.307 39.5C 151.74 40.5333 151.174 41.6667 150.607 42.9C 150.074 44.1 149.624 45.3333 149.257 46.6C 148.89 47.8667 148.707 49.0167 148.707 50.05C 148.707 50.8833 148.807 51.4167 149.007 51.65C 149.24 51.8833 149.557 52 149.957 52C 150.324 52 150.707 51.9167 151.107 51.75C 151.507 51.5833 151.824 51.5 152.057 51.5C 152.19 51.5667 152.29 51.7167 152.357 51.95C 152.457 52.15 152.507 52.3333 152.507 52.5C 152.24 52.7333 151.924 52.9667 151.557 53.2C 151.19 53.4333 150.807 53.65 150.407 53.85C 150.007 54.05 149.607 54.2167 149.207 54.35C 148.84 54.4833 148.507 54.55 148.207 54.55C 147.24 54.55 146.44 54.4 145.807 54.1C 145.207 53.8333 144.724 53.4667 144.357 53C 144.024 52.5333 143.79 51.9833 143.657 51.35C 143.524 50.6833 143.457 49.9833 143.457 49.25C 143.457 48.85 143.49 48.4 143.557 47.9C 143.624 47.4 143.757 46.8167 143.957 46.15C 144.157 45.45 144.44 44.6333 144.807 43.7C 145.174 42.7333 145.64 41.5833 146.207 40.25C 146.14 40.25 145.69 40.4833 144.857 40.95C 144.024 41.4167 143.124 42.1333 142.157 43.1C 140.59 44.6 139.174 46.0833 137.907 47.55C 136.674 49.0167 135.407 50.65 134.107 52.45C 133.374 53.4833 132.724 54.35 132.157 55.05C 131.624 55.7833 131.157 56.2667 130.757 56.5C 130.057 56.1 129.54 55.5333 129.207 54.8C 128.874 54.1 128.624 53.3667 128.457 52.6C 128.457 51.9667 128.54 51.1667 128.707 50.2C 128.907 49.2333 129.157 48.1667 129.457 47C 129.79 45.8 130.19 44.55 130.657 43.25C 131.124 41.95 131.64 40.65 132.207 39.35C 133.474 36.4167 134.624 34.1167 135.657 32.45C 136.724 30.7833 137.39 29.8833 137.657 29.75ZM 167.459 30.65C 168.126 30.65 168.892 30.85 169.759 31.25C 170.626 31.65 171.392 32.1667 172.059 32.8C 171.892 31.4667 171.676 30.2167 171.409 29.05C 171.176 27.85 170.809 26.6167 170.309 25.35C 169.842 24.0833 169.209 22.7 168.409 21.2C 167.609 19.7 166.609 17.9833 165.409 16.05C 165.509 15.75 165.726 15.4 166.059 15C 166.426 14.6 166.826 14.2333 167.259 13.9C 167.726 13.5333 168.192 13.2167 168.659 12.95C 169.159 12.6833 169.626 12.5167 170.059 12.45C 170.992 13.4833 171.876 14.7833 172.709 16.35C 173.542 17.8833 174.276 19.55 174.909 21.35C 175.542 23.1167 176.026 24.95 176.359 26.85C 176.726 28.75 176.909 30.5667 176.909 32.3C 176.909 34.0333 176.709 35.8167 176.309 37.65C 175.942 39.4833 175.409 41.2833 174.709 43.05C 174.042 44.7833 173.259 46.4333 172.359 48C 171.459 49.5667 170.476 50.9667 169.409 52.2C 168.376 53.4333 167.292 54.4333 166.159 55.2C 165.026 56 163.892 56.5 162.759 56.7C 160.459 56.4333 158.692 55.6833 157.459 54.45C 156.259 53.25 155.659 51.5833 155.659 49.45C 155.659 48.3167 155.826 47.0833 156.159 45.75C 156.526 44.4167 156.992 43.1 157.559 41.8C 158.159 40.4667 158.842 39.1833 159.609 37.95C 160.409 36.6833 161.242 35.55 162.109 34.55C 163.009 33.55 163.909 32.7 164.809 32C 165.709 31.3 166.592 30.85 167.459 30.65ZM 162.359 54.7C 163.526 54.3 164.692 53.4167 165.859 52.05C 167.026 50.6833 168.076 49.0833 169.009 47.25C 169.942 45.3833 170.692 43.4 171.259 41.3C 171.859 39.1667 172.159 37.1167 172.159 35.15C 172.159 34.5833 172.159 34.2333 172.159 34.1C 172.159 33.9667 172.142 33.8333 172.109 33.7C 171.309 34.0333 170.459 34.6 169.559 35.4C 168.659 36.2 167.759 37.1333 166.859 38.2C 165.959 39.2333 165.109 40.3667 164.309 41.6C 163.509 42.8333 162.792 44.0667 162.159 45.3C 161.526 46.5333 161.026 47.7167 160.659 48.85C 160.292 49.9833 160.109 50.9833 160.109 51.85C 160.109 53.5167 160.859 54.4667 162.359 54.7Z"/>
<path id="path1_fill" d="M 32.75 38.1C 33.6167 38.1 34.3 38.4 34.8 39C 35.3 39.6 35.55 40.4333 35.55 41.5C 35.55 41.7667 35.5333 42.05 35.5 42.35C 35.4667 42.6167 35.4167 42.85 35.35 43.05C 34.65 42.8833 33.8833 42.7833 33.05 42.75C 32.85 44.2167 32.3167 45.7667 31.45 47.4C 30.5833 49 29.5333 50.5167 28.3 51.95C 27.0667 53.35 25.7167 54.5833 24.25 55.65C 22.7833 56.7167 21.3333 57.4333 19.9 57.8C 15.4333 57.7 12.1667 56.5333 10.1 54.3C 8.06667 52.1 7.05 48.65 7.05 43.95C 7.05 40.5167 7.68333 37.2 8.95 34C 10.2167 30.7667 11.9 27.9 14 25.4C 16.1 22.9 18.5 20.9 21.2 19.4C 23.9333 17.8667 26.7667 17.1 29.7 17.1C 32 17.1 33.7833 17.5833 35.05 18.55C 36.35 19.5167 37 20.8833 37 22.65C 37 23.8167 36.7167 24.9 36.15 25.9C 35.6167 26.9 34.7167 27.9833 33.45 29.15C 32.6833 28.9167 32.0167 28.5167 31.45 27.95C 30.8833 27.35 30.5333 26.6667 30.4 25.9C 31.5333 25.0667 32.3333 24.3 32.8 23.6C 33.2667 22.9 33.5 22.0667 33.5 21.1C 33.5 19.5667 32.5833 18.8 30.75 18.8C 29.25 18.8 27.6333 19.3667 25.9 20.5C 24.2 21.6 22.4833 23.2 20.75 25.3C 18.2833 28.2667 16.4833 31.3333 15.35 34.5C 14.2167 37.6333 13.65 41.1667 13.65 45.1C 13.65 46.5667 13.8 47.9 14.1 49.1C 14.4 50.3 14.8 51.35 15.3 52.25C 15.8 53.15 16.3833 53.8667 17.05 54.4C 17.75 54.9333 18.5 55.2333 19.3 55.3C 20.3667 55.0667 21.4333 54.5333 22.5 53.7C 23.5667 52.8333 24.5333 51.8333 25.4 50.7C 26.3 49.5333 27.05 48.3 27.65 47C 28.2833 45.6667 28.6667 44.4 28.8 43.2C 27.8667 43.4 26.9667 43.6 26.1 43.8C 25.2667 43.9667 24.4667 44.05 23.7 44.05C 22.7 44.05 21.8167 43.8 21.05 43.3C 20.3167 42.8 19.8167 42.1167 19.55 41.25C 20.15 40.9167 21.0167 40.5667 22.15 40.2C 23.3167 39.8333 24.55 39.5 25.85 39.2C 27.15 38.8667 28.4167 38.6 29.65 38.4C 30.9167 38.2 31.95 38.1 32.75 38.1ZM 43.2695 55.75C 41.3695 55.55 39.8529 54.7167 38.7195 53.25C 37.5862 51.7833 37.0195 49.9167 37.0195 47.65C 37.0195 46.3167 37.2195 44.9333 37.6195 43.5C 38.0195 42.0667 38.5862 40.6833 39.3195 39.35C 40.0529 37.9833 40.9195 36.7 41.9195 35.5C 42.9195 34.3 44.0029 33.2667 45.1695 32.4C 47.0029 31.0333 48.7195 30.35 50.3195 30.35C 51.3862 30.9167 52.4362 32.1 53.4695 33.9C 53.6362 33.9 53.7862 33.9 53.9195 33.9C 54.0529 33.8667 54.2029 33.85 54.3695 33.85C 56.1362 33.85 57.0195 35.4167 57.0195 38.55C 57.0195 40.65 56.6695 42.65 55.9695 44.55C 55.3029 46.4167 54.3529 48.1167 53.1195 49.65C 51.9195 51.1833 50.4695 52.4833 48.7695 53.55C 47.1029 54.5833 45.2695 55.3167 43.2695 55.75ZM 45.8195 40C 45.2529 40.7667 44.7195 41.6 44.2195 42.5C 43.7195 43.4 43.2862 44.3167 42.9195 45.25C 42.5529 46.15 42.2695 47.0333 42.0695 47.9C 41.8695 48.7333 41.7695 49.4833 41.7695 50.15C 41.7695 50.95 41.9029 51.7167 42.1695 52.45C 42.4362 53.1833 42.7362 53.6 43.0695 53.7C 44.5695 53.3667 45.9362 52.75 47.1695 51.85C 48.4362 50.9167 49.5195 49.7667 50.4195 48.4C 51.3529 47.0333 52.0695 45.4833 52.5695 43.75C 53.1029 42.0167 53.3695 40.1667 53.3695 38.2C 53.3695 37.3333 53.3195 36.65 53.2195 36.15C 53.1195 35.65 52.9529 35.2167 52.7195 34.85C 51.2529 35.2833 49.9362 35.9833 48.7695 36.95C 47.6362 37.9167 46.6529 38.9333 45.8195 40ZM 76.6898 34.1C 76.6565 34.7333 76.5398 35.4 76.3398 36.1C 76.1732 36.7667 75.9565 37.3833 75.6898 37.95C 75.4232 38.4833 75.1398 38.9333 74.8398 39.3C 74.5398 39.6667 74.2565 39.85 73.9898 39.85C 73.6232 39.8167 73.4065 39.5667 73.3398 39.1C 73.3398 39 73.3732 38.85 73.4398 38.65C 73.5398 38.4167 73.6398 38.1667 73.7398 37.9C 73.8398 37.6333 73.9232 37.3667 73.9898 37.1C 74.0898 36.8333 74.1398 36.6 74.1398 36.4C 74.1398 35.9333 74.0232 35.55 73.7898 35.25C 73.5898 34.9167 73.3065 34.75 72.9398 34.75C 71.6065 34.75 70.5898 35.5833 69.8898 37.25C 69.1898 38.9167 68.8398 41.3667 68.8398 44.6C 68.8398 44.9333 68.8565 45.1333 68.8898 45.2C 69.5898 45.1667 70.2065 45.15 70.7398 45.15C 71.3065 45.1167 71.8565 45.1 72.3898 45.1C 72.4232 45.1667 72.4398 45.3 72.4398 45.5C 72.4398 45.8 72.3732 46.0167 72.2398 46.15C 71.4732 46.3167 70.8565 46.4667 70.3898 46.6C 69.9565 46.7 69.6232 46.8 69.3898 46.9C 69.1565 47 69.0065 47.1167 68.9398 47.25C 68.9065 47.35 68.8898 47.5 68.8898 47.7C 68.8898 47.9667 68.8898 48.2333 68.8898 48.5C 68.9232 48.7667 68.9398 49.1 68.9398 49.5C 68.9398 52.3 68.1732 54.55 66.6398 56.25C 65.1398 57.95 63.0398 58.9333 60.3398 59.2C 59.8732 59.1667 59.3898 59.0333 58.8898 58.8C 58.3898 58.5667 57.9065 58.2667 57.4398 57.9C 57.0065 57.5333 56.6232 57.1167 56.2898 56.65C 55.9565 56.2167 55.7232 55.7667 55.5898 55.3C 55.5898 54.0333 55.8565 52.8333 56.3898 51.7C 56.9232 50.5333 57.6398 49.5167 58.5398 48.65C 59.4732 47.75 60.5565 47.0333 61.7898 46.5C 63.0565 45.9333 64.4232 45.6 65.8898 45.5C 65.8898 44.6667 65.8065 43.85 65.6398 43.05C 65.4732 42.25 65.2898 41.4833 65.0898 40.75C 64.9232 39.9833 64.7565 39.25 64.5898 38.55C 64.4232 37.8167 64.3398 37.1 64.3398 36.4C 64.3398 35.5 64.5232 34.6167 64.8898 33.75C 65.2565 32.85 65.7398 32.0333 66.3398 31.3C 66.9398 30.5333 67.6398 29.8833 68.4398 29.35C 69.2398 28.8167 70.0732 28.45 70.9398 28.25C 71.3065 28.35 71.7898 28.65 72.3898 29.15C 73.0232 29.6167 73.6398 30.15 74.2398 30.75C 74.8398 31.35 75.3732 31.9667 75.8398 32.6C 76.3065 33.2 76.5898 33.7 76.6898 34.1ZM 60.1898 56.9C 60.9898 56.5667 61.7398 56.0833 62.4398 55.45C 63.1732 54.8167 63.8065 54.1 64.3398 53.3C 64.8732 52.5 65.2898 51.65 65.5898 50.75C 65.9232 49.85 66.0898 48.9667 66.0898 48.1C 65.4232 48.2 64.6898 48.5167 63.8898 49.05C 63.0898 49.55 62.3398 50.1667 61.6398 50.9C 60.9398 51.6 60.3565 52.3333 59.8898 53.1C 59.4232 53.8667 59.1898 54.5333 59.1898 55.1C 59.1898 55.8333 59.5232 56.4333 60.1898 56.9ZM 73.075 70.55C 72.6083 70.4167 72.3417 69.9167 72.275 69.05C 72.1417 68.6167 72.0417 68.1 71.975 67.5C 71.9417 66.9 71.925 66.2167 71.925 65.45C 71.925 64.75 72.0417 63.7833 72.275 62.55C 72.5083 61.35 72.825 59.9833 73.225 58.45C 73.6583 56.9167 74.175 55.2667 74.775 53.5C 75.375 51.7 76.0417 49.8833 76.775 48.05C 77.675 45.75 78.4583 43.7667 79.125 42.1C 79.7917 40.4 80.3417 38.9333 80.775 37.7C 81.2417 36.4667 81.6083 35.45 81.875 34.65C 82.175 33.85 82.4083 33.1667 82.575 32.6C 82.7083 32.2 82.9083 31.7167 83.175 31.15C 83.4417 30.5833 83.7417 30.0167 84.075 29.45C 84.4417 28.85 84.8083 28.3 85.175 27.8C 85.5417 27.2667 85.875 26.8667 86.175 26.6C 87.3417 26.7667 88.4417 27.0667 89.475 27.5C 90.5083 27.9333 91.1417 28.35 91.375 28.75C 90.9083 29.1833 90.375 29.8667 89.775 30.8C 89.175 31.7 88.5917 32.7 88.025 33.8C 87.4583 34.8667 86.9417 35.9667 86.475 37.1C 86.0083 38.2333 85.6583 39.2333 85.425 40.1C 85.7583 39.5333 86.1917 38.9167 86.725 38.25C 87.2583 37.5833 88.075 36.6667 89.175 35.5C 90.4083 34.2333 91.5583 33.2667 92.625 32.6C 93.725 31.9 94.675 31.55 95.475 31.55C 96.7417 31.55 97.775 31.9 98.575 32.6C 99.4083 33.3 99.825 34.2 99.825 35.3C 99.825 37.7 99.425 40.0833 98.625 42.45C 97.825 44.7833 96.675 46.9 95.175 48.8C 94.6083 49.5333 93.9417 50.2333 93.175 50.9C 92.4083 51.5667 91.6083 52.1667 90.775 52.7C 89.9417 53.2 89.125 53.6 88.325 53.9C 87.525 54.2 86.8083 54.35 86.175 54.35C 85.575 54.35 85.0417 54.2333 84.575 54C 84.1417 53.7333 83.8417 53.4167 83.675 53.05C 84.975 52.2833 86.2417 51.2167 87.475 49.85C 88.7083 48.4833 89.8417 46.9167 90.875 45.15C 91.9417 43.35 92.8583 41.4167 93.625 39.35C 94.425 37.2833 95.025 35.1833 95.425 33.05C 94.1583 33.7167 93.0083 34.45 91.975 35.25C 90.975 36.0167 89.975 37.0333 88.975 38.3C 87.775 39.7667 86.825 40.95 86.125 41.85C 85.425 42.75 84.8417 43.5167 84.375 44.15C 83.9417 44.7833 83.575 45.3833 83.275 45.95C 83.0083 46.4833 82.7083 47.15 82.375 47.95C 81.9083 49.0167 81.3583 50.4333 80.725 52.2C 80.125 53.9333 79.4917 55.8833 78.825 58.05C 78.1917 60.2167 77.5417 62.5167 76.875 64.95C 76.2417 67.4167 75.625 69.8667 75.025 72.3C 74.6583 72.2333 74.3417 71.9667 74.075 71.5C 73.8083 71.2 73.6083 70.9833 73.475 70.85C 73.375 70.7167 73.2417 70.6167 73.075 70.55ZM 119.527 33.3C 119.394 35.3667 119.027 37.15 118.427 38.65C 117.827 40.1167 116.961 41.4167 115.827 42.55C 114.727 43.65 113.377 44.65 111.777 45.55C 110.177 46.45 108.311 47.3167 106.177 48.15C 106.177 48.35 106.161 48.5667 106.127 48.8C 106.127 49 106.127 49.2167 106.127 49.45C 106.127 49.8833 106.161 50.3333 106.227 50.8C 106.294 51.2667 106.411 51.7 106.577 52.1C 106.744 52.5 106.977 52.8333 107.277 53.1C 107.577 53.3333 107.961 53.45 108.427 53.45C 109.327 53.45 110.211 53.25 111.077 52.85C 111.944 52.45 112.761 51.9667 113.527 51.4C 114.327 50.8 115.061 50.1667 115.727 49.5C 116.427 48.8 117.044 48.1667 117.577 47.6C 117.911 47.9 118.194 48.1833 118.427 48.45C 116.927 50.45 115.277 52.1167 113.477 53.45C 111.711 54.75 110.027 55.5833 108.427 55.95C 106.127 55.6833 104.327 54.85 103.027 53.45C 101.761 52.0167 101.127 50.3 101.127 48.3C 101.127 46.9333 101.311 45.55 101.677 44.15C 102.077 42.7167 102.611 41.35 103.277 40.05C 103.977 38.7167 104.777 37.4667 105.677 36.3C 106.611 35.1333 107.594 34.1167 108.627 33.25C 109.694 32.3833 110.777 31.7 111.877 31.2C 113.011 30.7 114.127 30.45 115.227 30.45C 116.761 30.65 118.194 31.6 119.527 33.3ZM 116.077 34.95C 115.177 35.0833 114.244 35.45 113.277 36.05C 112.311 36.65 111.394 37.45 110.527 38.45C 109.694 39.45 108.927 40.6167 108.227 41.95C 107.527 43.2833 106.977 44.7167 106.577 46.25C 109.244 44.9167 111.461 43.2833 113.227 41.35C 114.994 39.3833 115.944 37.25 116.077 34.95ZM 121.792 50.8C 121.792 49.3333 122.142 47.2833 122.842 44.65C 123.542 41.9833 124.526 38.8833 125.792 35.35C 127.859 29.7167 129.792 25.0333 131.592 21.3C 133.426 17.5333 135.209 14.6 136.942 12.5C 137.342 12.5667 137.826 12.7333 138.392 13C 138.992 13.2667 139.576 13.5667 140.142 13.9C 140.709 14.2 141.209 14.5167 141.642 14.85C 142.109 15.1833 142.409 15.45 142.542 15.65C 139.942 18.7167 137.659 22.0167 135.692 25.55C 133.726 29.0833 131.926 33.1333 130.292 37.7C 128.892 41.6333 127.826 45.1833 127.092 48.35C 126.359 51.4833 125.992 54.1 125.992 56.2C 125.992 56.7667 125.992 57.1167 125.992 57.25C 125.992 57.3833 126.009 57.5167 126.042 57.65C 125.576 57.5833 125.176 57.4667 124.842 57.3C 124.509 57.1333 124.292 56.9333 124.192 56.7C 124.126 56.5333 123.942 56.2833 123.642 55.95C 123.342 55.65 123.076 55.4167 122.842 55.25C 122.542 55.05 122.292 54.5333 122.092 53.7C 121.892 52.8333 121.792 51.8667 121.792 50.8ZM 148.523 34.85C 148.356 34.65 148.206 34.2333 148.073 33.6C 147.939 32.9333 147.873 32.3667 147.873 31.9C 148.739 31.9667 149.573 32.0333 150.373 32.1C 151.173 32.1333 151.906 32.1667 152.573 32.2C 153.073 31.2 153.606 30.2167 154.173 29.25C 154.773 28.25 155.339 27.35 155.873 26.55C 156.439 25.7167 156.956 25.0167 157.423 24.45C 157.923 23.8833 158.306 23.5167 158.573 23.35C 158.906 23.35 159.323 23.4167 159.823 23.55C 160.356 23.65 160.889 23.8 161.423 24C 161.956 24.1667 162.439 24.35 162.873 24.55C 163.306 24.75 163.606 24.95 163.773 25.15C 162.773 26.4167 161.906 27.6 161.173 28.7C 160.473 29.7667 159.706 31 158.873 32.4C 159.539 32.4 160.206 32.3833 160.873 32.35C 161.573 32.3167 162.273 32.2667 162.973 32.2C 163.139 32.3667 163.273 32.5833 163.373 32.85C 163.473 33.0833 163.523 33.3333 163.523 33.6C 161.889 34.2 159.906 34.5333 157.573 34.6C 156.739 36.2 155.989 37.8 155.323 39.4C 154.689 40.9667 154.139 42.4833 153.673 43.95C 153.239 45.4167 152.889 46.8 152.623 48.1C 152.389 49.4 152.273 50.5667 152.273 51.6C 152.273 53.0667 152.823 53.8833 153.923 54.05C 154.923 53.9167 155.873 53.6667 156.773 53.3C 157.673 52.9333 158.473 52.4667 159.173 51.9C 159.373 52.2 159.489 52.45 159.523 52.65C 159.323 52.95 158.973 53.3 158.473 53.7C 158.006 54.1 157.489 54.4833 156.923 54.85C 156.356 55.25 155.806 55.5833 155.273 55.85C 154.739 56.1167 154.339 56.2667 154.073 56.3C 153.239 56.2667 152.406 56.0833 151.573 55.75C 150.739 55.4167 149.973 55 149.273 54.5C 148.606 54 148.056 53.45 147.623 52.85C 147.189 52.2167 146.973 51.6 146.973 51C 146.973 50.2 147.073 49.2 147.273 48C 147.506 46.7667 147.823 45.4333 148.223 44C 148.623 42.5667 149.089 41.0667 149.623 39.5C 150.156 37.9333 150.739 36.3833 151.373 34.85L 148.523 34.85ZM 169.051 55.75C 167.151 55.55 165.634 54.7167 164.501 53.25C 163.367 51.7833 162.801 49.9167 162.801 47.65C 162.801 46.3167 163.001 44.9333 163.401 43.5C 163.801 42.0667 164.367 40.6833 165.101 39.35C 165.834 37.9833 166.701 36.7 167.701 35.5C 168.701 34.3 169.784 33.2667 170.951 32.4C 172.784 31.0333 174.501 30.35 176.101 30.35C 177.167 30.9167 178.217 32.1 179.251 33.9C 179.417 33.9 179.567 33.9 179.701 33.9C 179.834 33.8667 179.984 33.85 180.151 33.85C 181.917 33.85 182.801 35.4167 182.801 38.55C 182.801 40.65 182.451 42.65 181.751 44.55C 181.084 46.4167 180.134 48.1167 178.901 49.65C 177.701 51.1833 176.251 52.4833 174.551 53.55C 172.884 54.5833 171.051 55.3167 169.051 55.75ZM 171.601 40C 171.034 40.7667 170.501 41.6 170.001 42.5C 169.501 43.4 169.067 44.3167 168.701 45.25C 168.334 46.15 168.051 47.0333 167.851 47.9C 167.651 48.7333 167.551 49.4833 167.551 50.15C 167.551 50.95 167.684 51.7167 167.951 52.45C 168.217 53.1833 168.517 53.6 168.851 53.7C 170.351 53.3667 171.717 52.75 172.951 51.85C 174.217 50.9167 175.301 49.7667 176.201 48.4C 177.134 47.0333 177.851 45.4833 178.351 43.75C 178.884 42.0167 179.151 40.1667 179.151 38.2C 179.151 37.3333 179.101 36.65 179.001 36.15C 178.901 35.65 178.734 35.2167 178.501 34.85C 177.034 35.2833 175.717 35.9833 174.551 36.95C 173.417 37.9167 172.434 38.9333 171.601 40Z"/>
</defs>
</svg>
